<?xml version="1.0" standalone="no"?>
<!DOCTYPE svg PUBLIC "-//W3C//DTD SVG 20010904//EN"
 "http://www.w3.org/TR/2001/REC-SVG-20010904/DTD/svg10.dtd">
<svg version="1.0" xmlns="http://www.w3.org/2000/svg"
 width="801.000000pt" height="311.000000pt" viewBox="0 0 801.000000 311.000000"
 preserveAspectRatio="xMidYMid meet">

<g transform="translate(0.000000,311.000000) scale(0.100000,-0.100000)"
fill="#000000" stroke="none">
<path d="M5960 2080 c-58 -10 -105 -19 -106 -19 0 -1 1 -15 4 -31 2 -17 13
-35 23 -41 18 -9 19 -28 19 -399 l0 -390 105 0 105 0 0 450 0 450 -22 -1 c-13
-1 -70 -10 -128 -19z"/>
<path d="M3102 1995 c-131 -41 -191 -164 -192 -391 0 -287 95 -415 310 -416
89 0 145 13 182 44 26 23 26 24 12 70 l-14 47 -35 -15 c-19 -8 -57 -14 -86
-14 -44 0 -55 4 -79 30 -46 50 -55 90 -55 255 0 209 27 275 113 275 29 0 35
-5 52 -41 18 -41 19 -42 67 -42 l48 0 3 39 c2 21 7 42 11 46 4 4 45 -126 91
-290 46 -163 90 -318 98 -344 l14 -48 121 0 122 0 94 383 c52 210 96 390 99
400 4 15 -5 17 -80 17 l-84 0 -32 -137 c-17 -76 -43 -202 -58 -281 -16 -78
-33 -141 -38 -139 -9 3 -22 57 -96 405 l-33 152 -118 0 c-103 0 -119 -2 -119
-16 0 -12 -5 -14 -17 -9 -65 28 -98 34 -173 34 -47 0 -104 -6 -128 -14z"/>
<path d="M4406 1953 c-3 -27 -17 -196 -31 -378 -14 -181 -27 -340 -29 -352 -3
-23 -1 -23 94 -23 l97 0 6 73 c4 39 9 160 13 267 3 107 7 215 9 240 2 25 4 49
4 54 3 35 23 -40 76 -277 l61 -272 87 -3 c49 -2 87 1 87 7 0 5 23 129 50 276
28 147 50 269 50 272 0 2 5 1 10 -2 6 -3 10 -32 10 -63 0 -54 22 -376 35 -509
l7 -63 99 0 c72 0 99 3 99 13 1 30 -52 744 -56 765 -4 22 -7 22 -142 22 l-138
0 -39 -200 c-22 -110 -42 -200 -46 -200 -4 0 -12 24 -18 53 -6 28 -26 118 -44
199 l-32 148 -157 0 -156 0 -6 -47z"/>
<path d="M5435 1771 c-33 -10 -77 -25 -98 -34 l-38 -16 21 -41 c11 -22 21 -40
23 -40 1 0 35 7 76 15 114 24 181 2 181 -59 l0 -33 -68 -6 c-118 -10 -211 -59
-239 -125 -21 -49 -13 -143 14 -180 62 -84 204 -88 291 -9 l22 21 12 -32 12
-32 87 0 86 0 -3 48 c-2 26 -5 124 -8 217 -2 95 -10 185 -17 205 -18 52 -65
96 -115 109 -62 16 -170 12 -239 -8z m165 -371 c0 -79 -2 -91 -20 -100 -42
-22 -80 21 -80 90 0 33 6 48 29 71 16 16 39 29 50 29 20 0 21 -6 21 -90z"/>
<path d="M6690 1775 c-59 -19 -123 -74 -150 -131 -28 -57 -38 -189 -20 -262
17 -75 62 -136 117 -163 116 -56 314 -31 387 50 16 18 17 24 6 51 -15 36 -15
36 -67 10 -126 -61 -223 -22 -223 90 l0 40 161 0 162 0 -7 78 c-4 42 -12 95
-18 117 -14 53 -73 109 -131 124 -61 15 -161 13 -217 -4z m147 -85 c7 -14 13
-51 13 -82 l0 -58 -55 0 -55 0 0 63 c0 76 19 110 58 105 16 -2 31 -13 39 -28z"/>
<path d="M6241 1758 c-4 -13 -30 -81 -56 -151 l-48 -128 49 -130 c27 -72 51
-135 55 -140 3 -6 58 -8 131 -7 l126 3 -90 153 -91 153 87 129 c47 72 86 132
86 135 0 3 -54 5 -120 5 -116 0 -121 -1 -129 -22z"/>
<path d="M7175 1761 c-70 -17 -70 -18 -73 -54 -2 -28 1 -38 17 -47 20 -10 21
-19 21 -235 l0 -225 110 0 110 0 0 165 c0 189 -2 185 93 185 63 0 60 -6 73
148 l7 82 -39 0 c-21 0 -57 -9 -80 -20 -39 -20 -64 -53 -90 -125 -5 -13 -11 7
-17 63 -11 95 -7 93 -132 63z"/>
</g>
</svg>
